<?xml version="1.0" encoding="UTF-8"?>
<svg version="1.1" xmlns="http://www.w3.org/2000/svg" width="191" height="192">
<path d="M0 0 C1.05316406 0.37382813 2.10632813 0.74765625 3.19140625 1.1328125 C26.2195543 10.01467803 45.60189947 27.49900721 56 50 C58.31993607 55.55209235 60.31730754 61.22339797 62 67 C62.19577637 67.64880127 62.39155273 68.29760254 62.59326172 68.96606445 C64.54862259 76.37149225 64.39666726 83.95772964 64.375 91.5625 C64.37445618 92.27653992 64.37391235 92.99057983 64.37335205 93.72625732 C64.33613431 104.32973981 63.79043913 113.9866281 60 124 C59.57589844 125.175625 59.15179688 126.35125 58.71484375 127.5625 C49.27279983 151.54897369 31.29299786 170.24950948 7.99414062 181.14355469 C-13.05651694 190.18441006 -41.3032018 192.0475397 -63 184 C-64.05316406 183.62617188 -65.10632813 183.25234375 -66.19140625 182.8671875 C-89.2195543 173.98532197 -108.60189947 156.50099279 -119 134 C-121.31993607 128.44790765 -123.31730754 122.77660203 -125 117 C-125.19577637 116.35119873 -125.39155273 115.70239746 -125.59326172 115.03393555 C-127.54862259 107.62850775 -127.39666726 100.04227036 -127.375 92.4375 C-127.37445618 91.72346008 -127.37391235 91.00942017 -127.37335205 90.27374268 C-127.33613431 79.67026019 -126.79043913 70.0133719 -123 60 C-122.57589844 58.824375 -122.15179688 57.64875 -121.71484375 56.4375 C-112.27279983 32.45102631 -94.29299786 13.75049052 -70.99414062 2.85644531 C-49.94348306 -6.18441006 -21.6967982 -8.0475397 0 0 Z " fill="#FB0808" transform="translate(127,4)"/>
<path d="M0 0 C2.375 0.4375 2.375 0.4375 5 2 C5.80448381 4.2312203 6.20187132 6.3973592 6.59765625 8.734375 C7.05871244 11.33061376 7.91673571 13.60134337 9 16 C9.66 16 10.32 16 11 16 C11 17.32 11 18.64 11 20 C10.34 20 9.68 20 9 20 C8.67 23.63 8.34 27.26 8 31 C6.68 31.33 5.36 31.66 4 32 C4.02320313 32.91523437 4.04640625 33.83046875 4.0703125 34.7734375 C4.08835937 35.96195313 4.10640625 37.15046875 4.125 38.375 C4.14820313 39.55835938 4.17140625 40.74171875 4.1953125 41.9609375 C4 45 4 45 2 47 C1.83312552 49.41645782 1.83312552 49.41645782 2 52 C2 55.83441243 1.59875322 57.62485432 0 61 C-0.99 61.99 -0.99 61.99 -2 63 C-2.99 63 -3.98 63 -5 63 C-5.33 62.34 -5.66 61.68 -6 61 C-7.485 61.495 -7.485 61.495 -9 62 C-9 63.32 -9 64.64 -9 66 C-10.32 66 -11.64 66 -13 66 C-13 65.01 -13 64.02 -13 63 C-13.99 63.495 -13.99 63.495 -15 64 C-15.495 65.485 -15.495 65.485 -16 67 C-19.61789626 68.66979827 -23.22890491 67.82278438 -27 67 C-28.9375 65.4375 -28.9375 65.4375 -30 64 C-29.67 64.99 -29.34 65.98 -29 67 C-28.01 67.495 -28.01 67.495 -27 68 C-27 69.32 -27 70.64 -27 72 C-28.32 71.67 -29.64 71.34 -31 71 C-31.495 72.485 -31.495 72.485 -32 74 C-32.66 74 -33.32 74 -34 74 C-34.495 75.98 -34.495 75.98 -35 78 C-37.375 78.125 -37.375 78.125 -40 78 C-42.39763185 75.60236815 -42.34280586 74.66726502 -42.625 71.375 C-42.69976562 70.55773437 -42.77453125 69.74046875 -42.8515625 68.8984375 C-42.90054688 68.27195312 -42.94953125 67.64546875 -43 67 C-48.38818909 67.48390136 -48.38818909 67.48390136 -53.5 69.0625 C-57.0830962 70.40616107 -60.18631635 70.12927741 -64 70 C-64 70.99 -64 71.98 -64 73 C-70.4 74.23076923 -70.4 74.23076923 -73.4375 73.0625 C-73.953125 72.711875 -74.46875 72.36125 -75 72 C-75 70.68 -75 69.36 -75 68 C-74.113125 67.773125 -73.22625 67.54625 -72.3125 67.3125 C-68.5358773 65.81610233 -66.73346231 63.95509439 -64 61 C-60.8834757 58.92231714 -59.83768719 58.72283771 -56.25 58.5 C-51.94619879 58.15544532 -48.14811844 57.22003484 -44 56 C-41.0625 55.875 -41.0625 55.875 -39 56 C-39 56.66 -39 57.32 -39 58 C-38.01 57.67 -37.02 57.34 -36 57 C-35.26919734 55.02253397 -34.60578253 53.01927511 -34 51 C-33.34 50.01 -32.68 49.02 -32 48 C-31.34 48 -30.68 48 -30 48 C-30 46.68 -30 45.36 -30 44 C-29.09507813 43.94392578 -29.09507813 43.94392578 -28.171875 43.88671875 C-23.5526711 43.50675198 -20.53065899 43.24820627 -17 40 C-16.34 40 -15.68 40 -15 40 C-14.7525 39.278125 -14.505 38.55625 -14.25 37.8125 C-13 35 -13 35 -11 32.75 C-5.80428856 25.60589677 -6.76490918 16.4502088 -7 8 C-6.34 8 -5.68 8 -5 8 C-5 6.35 -5 4.7 -5 3 C-4.01 3 -3.02 3 -2 3 C-1.505 3.99 -1.505 3.99 -1 5 C-0.34 5 0.32 5 1 5 C1.33 4.34 1.66 3.68 2 3 C1.01 2.67 0.02 2.34 -1 2 C-0.67 1.34 -0.34 0.68 0 0 Z " fill="#F8F1F1" transform="translate(126,65)"/>
<path d="M0 0 C3.23486594 0.70177877 4.89181195 1.36476494 7 4 C7 4.66 7 5.32 7 6 C7.66 6 8.32 6 9 6 C9.33 6.99 9.66 7.98 10 9 C14.80837559 11.76845867 20.16376727 11.56724655 25.5 10.5 C25.995 10.335 26.49 10.17 27 10 C27 12.64 27 15.28 27 18 C28.32 18 29.64 18 31 18 C31 18.99 31 19.98 31 21 C29.75336669 21.50833591 28.50250613 22.00631145 27.25 22.5 C26.55390625 22.7784375 25.8578125 23.056875 25.140625 23.34375 C23 24 23 24 19 24 C18.34 24.99 17.68 25.98 17 27 C16.34 27 15.68 27 15 27 C15.04125 27.78375 15.0825 28.5675 15.125 29.375 C15 32 15 32 13 34 C8.60370982 33.76236269 6.22741144 31.85856441 3 29 C2.443125 29.33 1.88625 29.66 1.3125 30 C-1.30284522 31.1309601 -3.1806646 31.15662974 -6 31 C-5.175 31.61875 -4.35 32.2375 -3.5 32.875 C-2.675 33.57625 -1.85 34.2775 -1 35 C-1 35.66 -1 36.32 -1 37 C-2.65 37 -4.3 37 -6 37 C-6 37.66 -6 38.32 -6 39 C-6.99 39 -7.98 39 -9 39 C-10.39737627 35.24455129 -11.55917108 32.02603178 -11 28 C-10.01 27.34 -9.02 26.68 -8 26 C-7.74969023 23.41619823 -7.74969023 23.41619823 -8 21 C-5.69 21.33 -3.38 21.66 -1 22 C-1.020625 21.05125 -1.04125 20.1025 -1.0625 19.125 C-1 16 -1 16 0 14 C0.07116382 11.62597499 0.08409085 9.24999323 0.0625 6.875 C0.05347656 5.59367187 0.04445312 4.31234375 0.03515625 2.9921875 C0.02355469 2.00476563 0.01195312 1.01734375 0 0 Z " fill="#F6EDED" transform="translate(129,26)"/>
<path d="M0 0 C2.97 0.495 2.97 0.495 6 1 C6 1.66 6 2.32 6 3 C7.32 3 8.64 3 10 3 C11.98032798 10.92131193 11.14642163 16.65834954 8 24 C7.01 24 6.02 24 5 24 C4.67 24.99 4.34 25.98 4 27 C-1.875 26.125 -1.875 26.125 -3 25 C-3.36090226 17.54135338 -3.36090226 17.54135338 -1 14 C-0.60986284 12.0103005 -0.26797351 10.00980131 0 8 C-0.66 8 -1.32 8 -2 8 C-2 8.66 -2 9.32 -2 10 C-3.32 9.67 -4.64 9.34 -6 9 C-6.33 7.68 -6.66 6.36 -7 5 C-6.030625 4.54625 -5.06125 4.0925 -4.0625 3.625 C-0.92920418 2.34213779 -0.92920418 2.34213779 0 0 Z " fill="#F6EFEF" transform="translate(47,138)"/>
<path d="M0 0 C2.875 -0.125 2.875 -0.125 6 0 C6.66 0.66 7.32 1.32 8 2 C7.625 4.125 7.625 4.125 7 6 C6.34 6 5.68 6 5 6 C4.67 7.32 4.34 8.64 4 10 C1.69 9.67 -0.62 9.34 -3 9 C-3.268125 9.969375 -3.53625 10.93875 -3.8125 11.9375 C-4.204375 12.948125 -4.59625 13.95875 -5 15 C-5.99 15.33 -6.98 15.66 -8 16 C-8.99 15.34 -9.98 14.68 -11 14 C-11.1875 10.375 -11.1875 10.375 -11 7 C-10.01 6.67 -9.02 6.34 -8 6 C-8 5.01 -8 4.02 -8 3 C-6.865625 2.87625 -5.73125 2.7525 -4.5625 2.625 C-3.386875 2.41875 -2.21125 2.2125 -1 2 C-0.67 1.34 -0.34 0.68 0 0 Z " fill="#F4E9E9" transform="translate(73,135)"/>
<path d="M0 0 C0.66 0.33 1.32 0.66 2 1 C2 1.66 2 2.32 2 3 C3.56418154 4.28463521 3.56418154 4.28463521 5.5 5.5 C7.46875 6.78125 7.46875 6.78125 9 8 C9 8.66 9 9.32 9 10 C7.35 10 5.7 10 4 10 C4 10.66 4 11.32 4 12 C3.01 12 2.02 12 1 12 C-0.41404314 8.19975907 -1.34892324 5.07077118 -1 1 C-0.67 0.67 -0.34 0.34 0 0 Z " fill="#F2EDED" transform="translate(119,53)"/>
<path d="M0 0 C0.33 0.66 0.66 1.32 1 2 C-0.11375 2.45375 -1.2275 2.9075 -2.375 3.375 C-5.96199008 4.72465986 -5.96199008 4.72465986 -8 7 C-7.67801034 10.09926819 -7.67801034 10.09926819 -7 13 C-7.99 12.67 -8.98 12.34 -10 12 C-10 9.69 -10 7.38 -10 5 C-9.01 4.67 -8.02 4.34 -7 4 C-7 3.01 -7 2.02 -7 1 C-3.535 0.505 -3.535 0.505 0 0 Z " fill="#DEB5B6" transform="translate(72,137)"/>
<path d="M0 0 C0.5775 0.2475 1.155 0.495 1.75 0.75 C0.326875 1.8328125 0.326875 1.8328125 -1.125 2.9375 C-3.92412562 5.24809898 -5.23517558 7.19811452 -6.25 10.75 C-6.91 10.42 -7.57 10.09 -8.25 9.75 C-5.42647059 -0.60294118 -5.42647059 -0.60294118 0 0 Z " fill="#E34A4A" transform="translate(150.25,49.25)"/>
<path d="M0 0 C0.66 0.33 1.32 0.66 2 1 C2 1.66 2 2.32 2 3 C2.99 4.485 2.99 4.485 4 6 C3.01 6.495 3.01 6.495 2 7 C1.67 7.99 1.34 8.98 1 10 C-0.85064319 6.87703962 -1.29356154 4.62059232 -1 1 C-0.67 0.67 -0.34 0.34 0 0 Z " fill="#D6AEAE" transform="translate(119,53)"/>
</svg>
